<?xml version="1.0" encoding="UTF-8" standalone="no"?>
<!DOCTYPE svg PUBLIC "-//W3C//DTD SVG 1.1//EN"
 "http://www.w3.org/Graphics/SVG/1.1/DTD/svg11.dtd">
<!-- Generated by graphviz version 7.1.0 (0)
 -->
<!-- Pages: 1 -->
<svg width="1802pt" height="272pt"
 viewBox="0.00 0.00 1802.00 272.00" xmlns="http://www.w3.org/2000/svg" xmlns:xlink="http://www.w3.org/1999/xlink">
<g id="graph0" class="graph" transform="scale(1 1) rotate(0) translate(4 268)">
<polygon fill="white" stroke="none" points="-4,4 -4,-268 1798,-268 1798,4 -4,4"/>
<!-- node0 -->
<g id="node1" class="node">
<title>node0</title>
<path fill="cyan" stroke="black" d="M12,-0.5C12,-0.5 138,-0.5 138,-0.5 144,-0.5 150,-6.5 150,-12.5 150,-12.5 150,-80.5 150,-80.5 150,-86.5 144,-92.5 138,-92.5 138,-92.5 12,-92.5 12,-92.5 6,-92.5 0,-86.5 0,-80.5 0,-80.5 0,-12.5 0,-12.5 0,-6.5 6,-0.5 12,-0.5"/>
<text text-anchor="middle" x="75" y="-77.3" font-family="Times,serif" font-size="14.00">index: 0</text>
<polyline fill="none" stroke="black" points="0,-69.5 150,-69.5"/>
<text text-anchor="middle" x="75" y="-54.3" font-family="Times,serif" font-size="14.00">elem: 2147483647</text>
<polyline fill="none" stroke="black" points="0,-46.5 150,-46.5"/>
<text text-anchor="middle" x="75" y="-31.3" font-family="Times,serif" font-size="14.00">next: 1</text>
<polyline fill="none" stroke="black" points="0,-23.5 150,-23.5"/>
<text text-anchor="middle" x="75" y="-8.3" font-family="Times,serif" font-size="14.00">prev: 1</text>
</g>
<!-- node1 -->
<g id="node2" class="node">
<title>node1</title>
<path fill="cyan" stroke="black" d="M273.5,-0.5C273.5,-0.5 336.5,-0.5 336.5,-0.5 342.5,-0.5 348.5,-6.5 348.5,-12.5 348.5,-12.5 348.5,-80.5 348.5,-80.5 348.5,-86.5 342.5,-92.5 336.5,-92.5 336.5,-92.5 273.5,-92.5 273.5,-92.5 267.5,-92.5 261.5,-86.5 261.5,-80.5 261.5,-80.5 261.5,-12.5 261.5,-12.5 261.5,-6.5 267.5,-0.5 273.5,-0.5"/>
<text text-anchor="middle" x="305" y="-77.3" font-family="Times,serif" font-size="14.00">index: 1</text>
<polyline fill="none" stroke="black" points="261.5,-69.5 348.5,-69.5"/>
<text text-anchor="middle" x="305" y="-54.3" font-family="Times,serif" font-size="14.00">elem: 123</text>
<polyline fill="none" stroke="black" points="261.5,-46.5 348.5,-46.5"/>
<text text-anchor="middle" x="305" y="-31.3" font-family="Times,serif" font-size="14.00">next: 0</text>
<polyline fill="none" stroke="black" points="261.5,-23.5 348.5,-23.5"/>
<text text-anchor="middle" x="305" y="-8.3" font-family="Times,serif" font-size="14.00">prev: 0</text>
</g>
<!-- node0&#45;&gt;node1 -->
<g id="edge1" class="edge">
<title>node0&#45;&gt;node1</title>
<path fill="none" stroke="black" d="M149.71,-27.42C182.59,-25.43 220.6,-25.98 250.67,-29.05"/>
<polygon fill="black" stroke="black" points="249.93,-32.49 260.27,-30.18 250.75,-25.54 249.93,-32.49"/>
</g>
<!-- node0&#45;&gt;node1 -->
<g id="edge4" class="edge">
<title>node0&#45;&gt;node1</title>
<path fill="none" stroke="black" d="M149.71,-65.58C182.59,-67.57 220.6,-67.02 250.67,-63.95"/>
<polygon fill="black" stroke="black" points="250.75,-67.46 260.27,-62.82 249.93,-60.51 250.75,-67.46"/>
</g>
<!-- node1&#45;&gt;node0 -->
<g id="edge2" class="edge">
<title>node1&#45;&gt;node0</title>
<path fill="none" stroke="black" d="M261.77,-41.12C233.58,-39.86 195.52,-39.47 161.19,-39.95"/>
<polygon fill="black" stroke="black" points="161.16,-36.45 151.22,-40.11 161.28,-43.44 161.16,-36.45"/>
</g>
<!-- node1&#45;&gt;node0 -->
<g id="edge3" class="edge">
<title>node1&#45;&gt;node0</title>
<path fill="none" stroke="black" d="M261.77,-51.88C233.58,-53.14 195.52,-53.53 161.19,-53.05"/>
<polygon fill="black" stroke="black" points="161.28,-49.56 151.22,-52.89 161.16,-56.55 161.28,-49.56"/>
</g>
<!-- list -->
<g id="node3" class="node">
<title>list</title>
<path fill="green" stroke="black" d="M56,-111.5C56,-111.5 94,-111.5 94,-111.5 100,-111.5 106,-117.5 106,-123.5 106,-123.5 106,-145.5 106,-145.5 106,-151.5 100,-157.5 94,-157.5 94,-157.5 56,-157.5 56,-157.5 50,-157.5 44,-151.5 44,-145.5 44,-145.5 44,-123.5 44,-123.5 44,-117.5 50,-111.5 56,-111.5"/>
<text text-anchor="middle" x="75" y="-142.3" font-family="Times,serif" font-size="14.00">size: 2</text>
<polyline fill="none" stroke="black" points="44,-134.5 106,-134.5"/>
<text text-anchor="middle" x="75" y="-119.3" font-family="Times,serif" font-size="14.00">cap: 8</text>
</g>
<!-- free -->
<g id="node4" class="node">
<title>free</title>
<path fill="red" stroke="black" d="M54,-176.5C54,-176.5 96,-176.5 96,-176.5 102,-176.5 108,-182.5 108,-188.5 108,-188.5 108,-210.5 108,-210.5 108,-216.5 102,-222.5 96,-222.5 96,-222.5 54,-222.5 54,-222.5 48,-222.5 42,-216.5 42,-210.5 42,-210.5 42,-188.5 42,-188.5 42,-182.5 48,-176.5 54,-176.5"/>
<text text-anchor="middle" x="75" y="-207.3" font-family="Times,serif" font-size="14.00">free</text>
<polyline fill="none" stroke="black" points="42,-199.5 108,-199.5"/>
<text text-anchor="middle" x="75" y="-184.3" font-family="Times,serif" font-size="14.00">next: 2</text>
</g>
<!-- free2 -->
<g id="node5" class="node">
<title>free2</title>
<path fill="orange" stroke="black" d="M198,-153.5C198,-153.5 412,-153.5 412,-153.5 418,-153.5 424,-159.5 424,-165.5 424,-165.5 424,-233.5 424,-233.5 424,-239.5 418,-245.5 412,-245.5 412,-245.5 198,-245.5 198,-245.5 192,-245.5 186,-239.5 186,-233.5 186,-233.5 186,-165.5 186,-165.5 186,-159.5 192,-153.5 198,-153.5"/>
<text text-anchor="middle" x="305" y="-230.3" font-family="Times,serif" font-size="14.00">index: 2</text>
<polyline fill="none" stroke="black" points="186,-222.5 424,-222.5"/>
<text text-anchor="middle" x="305" y="-207.3" font-family="Times,serif" font-size="14.00">elem: &#45;2147483648</text>
<polyline fill="none" stroke="black" points="186,-199.5 424,-199.5"/>
<text text-anchor="middle" x="305" y="-184.3" font-family="Times,serif" font-size="14.00">next: 3</text>
<polyline fill="none" stroke="black" points="186,-176.5 424,-176.5"/>
<text text-anchor="middle" x="305" y="-161.3" font-family="Times,serif" font-size="14.00">prev: 18446744073709551615</text>
</g>
<!-- free&#45;&gt;free2 -->
<g id="edge5" class="edge">
<title>free&#45;&gt;free2</title>
<path fill="none" stroke="black" d="M107.7,-199.5C125.74,-199.5 149.67,-199.5 174.59,-199.5"/>
<polygon fill="black" stroke="black" points="174.58,-203 184.58,-199.5 174.58,-196 174.58,-203"/>
</g>
<!-- free3 -->
<g id="node6" class="node">
<title>free3</title>
<path fill="orange" stroke="black" d="M472,-153.5C472,-153.5 686,-153.5 686,-153.5 692,-153.5 698,-159.5 698,-165.5 698,-165.5 698,-233.5 698,-233.5 698,-239.5 692,-245.5 686,-245.5 686,-245.5 472,-245.5 472,-245.5 466,-245.5 460,-239.5 460,-233.5 460,-233.5 460,-165.5 460,-165.5 460,-159.5 466,-153.5 472,-153.5"/>
<text text-anchor="middle" x="579" y="-230.3" font-family="Times,serif" font-size="14.00">index: 3</text>
<polyline fill="none" stroke="black" points="460,-222.5 698,-222.5"/>
<text text-anchor="middle" x="579" y="-207.3" font-family="Times,serif" font-size="14.00">elem: &#45;2147483648</text>
<polyline fill="none" stroke="black" points="460,-199.5 698,-199.5"/>
<text text-anchor="middle" x="579" y="-184.3" font-family="Times,serif" font-size="14.00">next: 4</text>
<polyline fill="none" stroke="black" points="460,-176.5 698,-176.5"/>
<text text-anchor="middle" x="579" y="-161.3" font-family="Times,serif" font-size="14.00">prev: 18446744073709551615</text>
</g>
<!-- free2&#45;&gt;free3 -->
<g id="edge6" class="edge">
<title>free2&#45;&gt;free3</title>
<path fill="none" stroke="black" d="M423.72,-199.5C432.01,-199.5 440.4,-199.5 448.75,-199.5"/>
<polygon fill="black" stroke="black" points="448.59,-203 458.59,-199.5 448.59,-196 448.59,-203"/>
</g>
<!-- free4 -->
<g id="node7" class="node">
<title>free4</title>
<path fill="orange" stroke="black" d="M746,-153.5C746,-153.5 960,-153.5 960,-153.5 966,-153.5 972,-159.5 972,-165.5 972,-165.5 972,-233.5 972,-233.5 972,-239.5 966,-245.5 960,-245.5 960,-245.5 746,-245.5 746,-245.5 740,-245.5 734,-239.5 734,-233.5 734,-233.5 734,-165.5 734,-165.5 734,-159.5 740,-153.5 746,-153.5"/>
<text text-anchor="middle" x="853" y="-230.3" font-family="Times,serif" font-size="14.00">index: 4</text>
<polyline fill="none" stroke="black" points="734,-222.5 972,-222.5"/>
<text text-anchor="middle" x="853" y="-207.3" font-family="Times,serif" font-size="14.00">elem: &#45;2147483648</text>
<polyline fill="none" stroke="black" points="734,-199.5 972,-199.5"/>
<text text-anchor="middle" x="853" y="-184.3" font-family="Times,serif" font-size="14.00">next: 5</text>
<polyline fill="none" stroke="black" points="734,-176.5 972,-176.5"/>
<text text-anchor="middle" x="853" y="-161.3" font-family="Times,serif" font-size="14.00">prev: 18446744073709551615</text>
</g>
<!-- free3&#45;&gt;free4 -->
<g id="edge7" class="edge">
<title>free3&#45;&gt;free4</title>
<path fill="none" stroke="black" d="M697.72,-199.5C706.01,-199.5 714.4,-199.5 722.75,-199.5"/>
<polygon fill="black" stroke="black" points="722.59,-203 732.59,-199.5 722.59,-196 722.59,-203"/>
</g>
<!-- free5 -->
<g id="node8" class="node">
<title>free5</title>
<path fill="orange" stroke="black" d="M1020,-153.5C1020,-153.5 1234,-153.5 1234,-153.5 1240,-153.5 1246,-159.5 1246,-165.5 1246,-165.5 1246,-233.5 1246,-233.5 1246,-239.5 1240,-245.5 1234,-245.5 1234,-245.5 1020,-245.5 1020,-245.5 1014,-245.5 1008,-239.5 1008,-233.5 1008,-233.5 1008,-165.5 1008,-165.5 1008,-159.5 1014,-153.5 1020,-153.5"/>
<text text-anchor="middle" x="1127" y="-230.3" font-family="Times,serif" font-size="14.00">index: 5</text>
<polyline fill="none" stroke="black" points="1008,-222.5 1246,-222.5"/>
<text text-anchor="middle" x="1127" y="-207.3" font-family="Times,serif" font-size="14.00">elem: &#45;2147483648</text>
<polyline fill="none" stroke="black" points="1008,-199.5 1246,-199.5"/>
<text text-anchor="middle" x="1127" y="-184.3" font-family="Times,serif" font-size="14.00">next: 6</text>
<polyline fill="none" stroke="black" points="1008,-176.5 1246,-176.5"/>
<text text-anchor="middle" x="1127" y="-161.3" font-family="Times,serif" font-size="14.00">prev: 18446744073709551615</text>
</g>
<!-- free4&#45;&gt;free5 -->
<g id="edge8" class="edge">
<title>free4&#45;&gt;free5</title>
<path fill="none" stroke="black" d="M971.72,-199.5C980.01,-199.5 988.4,-199.5 996.75,-199.5"/>
<polygon fill="black" stroke="black" points="996.59,-203 1006.59,-199.5 996.59,-196 996.59,-203"/>
</g>
<!-- free6 -->
<g id="node9" class="node">
<title>free6</title>
<path fill="orange" stroke="black" d="M1294,-153.5C1294,-153.5 1508,-153.5 1508,-153.5 1514,-153.5 1520,-159.5 1520,-165.5 1520,-165.5 1520,-233.5 1520,-233.5 1520,-239.5 1514,-245.5 1508,-245.5 1508,-245.5 1294,-245.5 1294,-245.5 1288,-245.5 1282,-239.5 1282,-233.5 1282,-233.5 1282,-165.5 1282,-165.5 1282,-159.5 1288,-153.5 1294,-153.5"/>
<text text-anchor="middle" x="1401" y="-230.3" font-family="Times,serif" font-size="14.00">index: 6</text>
<polyline fill="none" stroke="black" points="1282,-222.5 1520,-222.5"/>
<text text-anchor="middle" x="1401" y="-207.3" font-family="Times,serif" font-size="14.00">elem: &#45;2147483648</text>
<polyline fill="none" stroke="black" points="1282,-199.5 1520,-199.5"/>
<text text-anchor="middle" x="1401" y="-184.3" font-family="Times,serif" font-size="14.00">next: 7</text>
<polyline fill="none" stroke="black" points="1282,-176.5 1520,-176.5"/>
<text text-anchor="middle" x="1401" y="-161.3" font-family="Times,serif" font-size="14.00">prev: 18446744073709551615</text>
</g>
<!-- free5&#45;&gt;free6 -->
<g id="edge9" class="edge">
<title>free5&#45;&gt;free6</title>
<path fill="none" stroke="black" d="M1245.72,-199.5C1254.01,-199.5 1262.4,-199.5 1270.75,-199.5"/>
<polygon fill="black" stroke="black" points="1270.59,-203 1280.59,-199.5 1270.59,-196 1270.59,-203"/>
</g>
<!-- free7 -->
<g id="node10" class="node">
<title>free7</title>
<path fill="orange" stroke="black" d="M1568,-153.5C1568,-153.5 1782,-153.5 1782,-153.5 1788,-153.5 1794,-159.5 1794,-165.5 1794,-165.5 1794,-233.5 1794,-233.5 1794,-239.5 1788,-245.5 1782,-245.5 1782,-245.5 1568,-245.5 1568,-245.5 1562,-245.5 1556,-239.5 1556,-233.5 1556,-233.5 1556,-165.5 1556,-165.5 1556,-159.5 1562,-153.5 1568,-153.5"/>
<text text-anchor="middle" x="1675" y="-230.3" font-family="Times,serif" font-size="14.00">index: 7</text>
<polyline fill="none" stroke="black" points="1556,-222.5 1794,-222.5"/>
<text text-anchor="middle" x="1675" y="-207.3" font-family="Times,serif" font-size="14.00">elem: &#45;2147483648</text>
<polyline fill="none" stroke="black" points="1556,-199.5 1794,-199.5"/>
<text text-anchor="middle" x="1675" y="-184.3" font-family="Times,serif" font-size="14.00">next: 7</text>
<polyline fill="none" stroke="black" points="1556,-176.5 1794,-176.5"/>
<text text-anchor="middle" x="1675" y="-161.3" font-family="Times,serif" font-size="14.00">prev: 18446744073709551615</text>
</g>
<!-- free6&#45;&gt;free7 -->
<g id="edge10" class="edge">
<title>free6&#45;&gt;free7</title>
<path fill="none" stroke="black" d="M1519.72,-199.5C1528.01,-199.5 1536.4,-199.5 1544.75,-199.5"/>
<polygon fill="black" stroke="black" points="1544.59,-203 1554.59,-199.5 1544.59,-196 1544.59,-203"/>
</g>
<!-- free7&#45;&gt;free7 -->
<g id="edge11" class="edge">
<title>free7&#45;&gt;free7</title>
<path fill="none" stroke="black" d="M1624.64,-245.3C1628.78,-256.06 1645.57,-264 1675,-264 1695.7,-264 1710.14,-260.08 1718.33,-254"/>
<polygon fill="black" stroke="black" points="1720.85,-256.46 1724.41,-246.48 1715.4,-252.06 1720.85,-256.46"/>
</g>
</g>
</svg>
